<?xml version="1.0" encoding="UTF-8" standalone="no"?>
<!-- Created with Inkscape (http://www.inkscape.org/) -->

<svg
   width="512"
   height="512"
   viewBox="0 0 512 512"
   version="1.1"
   id="svg1"
   xml:space="preserve"
   xmlns="http://www.w3.org/2000/svg"
   xmlns:svg="http://www.w3.org/2000/svg"><defs
     id="defs1" /><rect
     style="display:inline;fill:#ffffff;fill-opacity:1;stroke:none;stroke-width:1.28126;stroke-linecap:square;stroke-linejoin:round;paint-order:stroke fill markers"
     id="rect1"
     width="430.55545"
     height="433.1969"
     x="36.980225"
     y="38.741188"
     ry="103.89682" /><g
     id="layer1"><path
       style="fill:#5020c0;fill-opacity:1;stroke-width:1.23625"
       d="M 91.321323,467.4434 C 74.273383,462.85888 59.07179,450.77452 48.029954,433.0294 39.74484,419.71457 39.464334,418.10782 38.514953,378.52878 l -0.978211,-40.78133 h 40.408389 40.408399 l 21.11543,-20.47448 c 22.72152,-22.03182 22.8307,-23.35612 2.19203,-26.58645 -10.23603,-1.60214 -11.99263,-0.82776 -22.35734,9.85592 l -11.24847,11.59468 H 73.062769 38.070371 v -56.91188 -56.91186 h 34.992398 34.992411 l 11.11459,11.38238 c 12.02498,12.31469 14.27904,12.91664 30.9916,8.2763 l 11.07244,-3.07433 -22.2128,-22.34384 -22.2128,-22.34386 -39.645294,1.69557 -39.645299,1.69556 1.052275,-40.99876 C 39.739437,87.03429 42.699585,77.545757 61.297158,59.7517 78.918866,42.891362 92.001028,39.092724 132.68634,39.022654 l 36.28132,-0.06243 v 39.19366 39.193676 l 22.45642,22.32471 22.45643,22.32473 3.23551,-15.08664 3.2355,-15.08665 -11.21585,-11.57323 -11.21585,-11.57323 -0.95952,-34.858599 -0.95952,-34.858613 57.62327,8.7e-5 57.62326,9.9e-5 v 34.977428 34.977458 l -12.49598,12.26388 c -13.16332,12.91882 -13.40376,14.4943 -5.68328,37.23954 0.99621,2.93489 7.85075,-2.50753 22.60961,-17.95175 l 21.18,-22.16353 V 78.631732 38.960223 l 34.85851,0.01582 c 19.17218,0.0086 39.62812,1.340495 45.45762,2.959493 16.21979,4.504636 33.75195,19.526011 42.63416,36.528494 7.56676,14.484456 7.94696,17.068795 7.94641,54.01425 l -5.6e-4,38.80197 -37.99528,-0.29837 -37.99528,-0.29839 -22.78269,22.3289 -22.78269,22.32888 10.26927,2.85256 c 16.74487,4.65133 21.351,3.46639 33.034,-8.49807 l 11.11459,-11.38237 h 33.56961 33.56962 v 56.91186 56.91187 H 434.18533 400.61572 L 389.36724,300.516 c -10.56991,-10.92007 -11.99229,-11.52221 -23.57824,-9.98166 -6.78137,0.90168 -13.63607,2.44678 -15.23266,3.43353 -1.59661,0.98675 6.48076,11.24084 17.94971,22.78684 l 20.85264,20.99274 h 39.19813 39.19813 l -0.0626,39.12692 c -0.0703,44.05502 -3.01185,54.49831 -20.13828,71.49792 -17.46657,17.33723 -30.6214,21.41209 -72.99239,22.61025 l -37.70411,1.06619 V 431.14861 390.2485 l -21.22876,-21.08707 c -14.53277,-14.43579 -21.6643,-19.79867 -22.60961,-17.00235 -7.66077,22.66134 -7.42281,24.20198 5.73204,37.11249 l 12.49598,12.26389 v 34.97744 34.97744 h -57.75251 -57.75253 l 1.11955,-36.28132 1.11954,-36.2813 10.94066,-11.38238 c 10.81274,-11.24928 10.90659,-11.54043 8.02744,-24.89894 -1.60227,-7.43412 -3.91834,-13.51657 -5.14682,-13.51657 -1.22848,0 -11.36891,9.77359 -22.5343,21.71909 l -20.30068,21.71909 v 39.46116 39.46117 l -32.01293,-0.19206 C 119.34756,471.1927 98.812537,469.45795 91.321274,467.4434 Z M 261.34357,401.85986 c 4.94705,-23.96228 21.45325,-90.56574 22.79441,-91.97674 0.43453,-0.45716 13.15395,7.07978 28.26535,16.74874 15.11141,9.66896 28.1284,16.92682 28.92663,16.12859 0.79824,-0.79824 -6.33636,-13.93848 -15.85468,-29.20054 -9.51831,-15.26206 -16.9336,-28.08078 -16.4784,-28.48606 0.9083,-0.80867 83.76844,-20.40763 105.40319,-24.93107 7.43412,-1.55434 13.51657,-3.6261 13.51657,-4.60389 0,-1.52749 -83.28798,-22.25656 -110.26675,-27.44366 -5.08649,-0.97796 -9.24816,-2.28258 -9.24816,-2.89915 0,-0.61657 8.44557,-14.78441 18.76797,-31.4841 10.32239,-16.69968 17.0451,-29.70056 14.93936,-28.89084 -2.10573,0.80973 -15.91419,9.28962 -30.68547,18.84418 -14.77127,9.55457 -27.24783,16.98097 -27.72568,16.50312 -1.30373,-1.30373 -16.97376,-65.47875 -22.34002,-91.49125 -2.58294,-12.520609 -5.59512,-24.373327 -6.69373,-26.339367 -1.73721,-3.108857 -16.27699,52.990647 -26.57413,102.532137 -1.87882,9.03942 -4.74545,15.92378 -6.37027,15.29859 -1.62482,-0.62518 -15.03981,-8.95407 -29.81109,-18.50863 -14.77127,-9.55457 -27.37573,-16.85307 -28.0099,-16.2189 -0.63419,0.63419 6.84847,14.17379 16.62812,30.08802 18.51242,30.12493 18.93793,33.93199 3.80476,34.04229 -3.28788,0.024 -9.69047,1.20842 -14.22797,2.63209 -4.5375,1.42368 -27.13386,6.86588 -50.21413,12.09377 -23.080261,5.2279 -41.967883,10.24757 -41.972494,11.15484 -0.0049,0.90728 10.555877,3.88352 23.467754,6.61386 28.7162,6.07235 94.21749,22.01616 95.67898,23.28946 0.58466,0.50936 -6.89774,13.88047 -16.62753,29.71359 -9.7298,15.83311 -17.25099,29.21661 -16.71377,29.74112 0.53723,0.52449 10.58065,-5.4235 22.31872,-13.21777 30.47778,-20.23775 36.80206,-23.34409 38.36346,-18.84329 1.51946,4.37995 19.36973,79.31964 24.46896,102.72654 4.2481,19.50002 6.03624,17.54758 12.46994,-13.61568 z"
       id="path1" /></g></svg>
